# AST/ASF file generated using VICON BodyLanguage
# -----------------------------------------------
:version 1.10
:name VICON
:units
  mass 1.0
  length 0.45
  angle deg
:documentation
   .ast/.asf automatically generated from VICON data using
   VICON BodyBuilder and BodyLanguage model FoxedUp or BRILLIANT.MOD
:root
   order TX TY TZ RX RY RZ
   axis XYZ
   position 0 0 0  
   orientation 0 -0 0 
:bonedata
  begin
     id 1 
     name lhipjoint
     direction 0.500677 -0.737119 0.453848 
     length 2.34727 
     axis 0 -0 0  XYZ
  end
  begin
     id 2 
     name lfemur
     direction 0.34202 -0.939693 0  
     length 7.53653  
     axis 0 -0 20  XYZ
    dof rx ry rz
    limits (-160.0 20.0)
           (-70.0 70.0)
           (-60.0 70.0)
  end
  begin
     id 3 
     name ltibia
     direction 0.34202 -0.939693 0   
     length 6.85572   
     axis 0 -0 20   XYZ
    dof rx
    limits (-10.0 170.0)
  end
  begin
     id 4 
     name lfoot
     direction 0.155313 -0.426718 0.890949   
     length 2.18324   
     axis -90 -1.13533e-015 20   XYZ
    dof rx rz
    limits (-45.0 90.0)
           (-70.0 20.0)
  end
  begin
     id 5 
     name ltoes
     direction 1.53474e-011 -4.21647e-011 1   
     length 1.06748   
     axis -90 -1.13533e-015 20   XYZ
    dof rx
    limits (-90.0 20.0)
  end
  begin
     id 6 
     name rhipjoint
     direction -0.632471 -0.659587 0.406111   
     length 2.62319  
     axis 0 -0 0  XYZ 
  end
  begin
     id 7 
     name rfemur
     direction -0.34202 -0.939693 0   
     length 7.21735   
     axis 0 -0 -20   XYZ
    dof rx ry rz
    limits (-160.0 20.0)
           (-70.0 70.0)
           (-70.0 60.0)
  end
  begin
     id 8 
     name rtibia
     direction -0.34202 -0.939693 0   
     length 7.02558   
     axis 0 -0 -20   XYZ
    dof rx
    limits (-10.0 170.0)
 end
 begin
     id 9 
     name rfoot
     direction -0.16057 -0.441164 0.882945   
     length 2.10014  
     axis -90 1.13533e-015 -20   XYZ
    dof rx rz
    limits (-45.0 90.0)
           (-20.0 70.0)
  end
  begin
     id 10 
     name rtoes
     direction -1.53553e-011 -4.2192e-011 1   
     length 1.02554   
     axis -90 1.13533e-015 -20   XYZ
    dof rx
    limits (-90.0 20.0)
  end
  begin
     id 11 
     name lowerback
     direction 0.0401429 0.998861 -0.0258085   
     length 1.80848   
     axis 0 -0 0   XYZ
    dof rx ry rz
    limits (-20.0 45.0)
           (-30.0 30.0)
           (-30.0 30.0)
  end
  begin
     id 12 
     name upperback
     direction -0.0130978 0.999914 -0.000352645   
     length 1.8116   
     axis 0 -0 0   XYZ
    dof rx ry rz
    limits (-20.0 45.0)
           (-30.0 30.0)
           (-30.0 30.0)
  end
  begin
     id 13 
     name thorax
     direction -0.0300198 0.999453 0.0138573   
     length 1.81778   
     axis 0 -0 0   XYZ
    dof rx ry rz
    limits (-20.0 45.0)
           (-30.0 30.0)
           (-30.0 30.0)
  end
  begin
     id 14 
     name lowerneck
     direction -0.0401726 0.999191 -0.00173647   
     length 2.10594   
     axis 0 -0 0   XYZ
    dof rx ry rz
    limits (-20.0 45.0)
           (-30.0 30.0)
           (-30.0 30.0)
  end
  begin
     id 15 
     name upperneck
     direction 0.0119835 0.998501 0.0534085   
     length 2.07325   
     axis 0 -0 0   XYZ
    dof rx ry rz
    limits (-20.0 45.0)
           (-30.0 30.0)
           (-30.0 30.0)
  end
  begin
     id 16
     name head
     direction 0.00628309 0.999826 0.0175921  
     length 2.15096  
     axis 0 -0 0   XYZ
    dof rx ry rz
    limits (-20.0 45.0)
           (-30.0 30.0)
           (-30.0 30.0)
  end
  begin
     id 17 
     name lclavicle
     direction 0.895501 0.429681 -0.115981  
     length 4.18092  
     axis 0 -0 0   XYZ
    dof ry rz
    limits (-20.0 10.0)
           (0.0 20.0)
  end
  begin
     id 18 
     name lhumerus
     direction 1 -4.48961e-011 -3.38433e-028   
     length 5.77237   
     axis 180 -30 -90   XYZ
    dof rx ry rz
    limits (-60.0 90.0)
           (-90.0 90.0)
           (-90.0 90.0)
  end
  begin
     id 19
     name lradius
     direction 1 -4.4901e-011 1.11983e-026   
     length 2.91878   
     axis 180 -30 -90   XYZ
    dof rx
    limits (-10.0 170.0)
  end
  begin
     id 20
     name lwrist
     direction 1 -4.48934e-011 1.88176e-026   
     length 1.45939   
     axis -1.23311e-014 90 90   XYZ
    dof ry
    limits (-180.0 0.0)
 end
  begin
     id 21 
     name lhand
     direction 1 -4.4895e-011 3.76352e-026   
     length 1.06566   
     axis -2.40147e-014 90 90   XYZ
    dof rx rz
    limits (-90.0 90.0)
           (-45.0 45.0)
  end
  begin
     id 22 
     name lfingers
     direction 1 -4.49005e-011 7.52705e-026   
     length 0.859162   
     axis -4.80295e-014 90 90   XYZ
    dof rx
    limits (0.0 90.0)
  end
  begin
     id 23
     name lthumb
     direction 0.707107 -6.34885e-011 0.707107   
     length 1.23359   
     axis -90 45 -9.86935e-015   XYZ
    dof rx rz
    limits (-45.0 45.0)
           (-45.0 45.0)
  end
  begin
     id 24 
     name rclavicle
     direction -0.91006 0.40451 -0.0903492   
     length 4.23293  
     axis 0 -0 0   XYZ 
    dof ry rz
    limits (-10.0 20.0)
           (-20.0 0.0)
  end
  begin
     id 25 
     name rhumerus
     direction -1 -4.4897e-011 1.7415e-027  
     length 5.49854   
     axis 180 30 90   XYZ
    dof rx ry rz
    limits (-90.0 60.0)
           (-90.0 90.0)
           (-90.0 90.0)
  end
  begin
     id 26 
     name rradius
     direction -1 -4.48963e-011 1.21259e-026   
     length 3.1186   
     axis 180 30 90   XYZ
    dof rx
    limits (-10.0 170.0)
  end
  begin
     id 27 
     name rwrist
     direction -1 -4.48967e-011 1.88176e-026   
     length 1.5593   
     axis -1.23311e-014 -90 -90   XYZ
    dof ry
    limits (-180.0 0.0)
  end
  begin
     id 28
     name rhand
     direction -1 -4.4895e-011 3.76352e-026   
     length 0.71207   
     axis -2.40147e-014 -90 -90   XYZ
    dof rx rz
    limits (-90.0 90.0)
           (-45.0 45.0)
  end
  begin
     id 29
     name rfingers
     direction -1 -4.49005e-011 7.52705e-026   
     length 0.574089   
     axis -4.80295e-014 -90 -90   XYZ
    dof rx
    limits (0.0 90.0)
  end
  begin
     id 30
     name rthumb
     direction -0.707107 -6.34982e-011 0.707107   
     length 0.824281   
     axis -90 -45 9.86935e-015   XYZ
    dof rx rz
    limits (-45.0 45.0)
           (-45.0 45.0)
  end
:hierarchy
  begin
    root lhipjoint rhipjoint lowerback
    lhipjoint lfemur
    lfemur ltibia
    ltibia lfoot
    lfoot ltoes
    rhipjoint rfemur
    rfemur rtibia
    rtibia rfoot
    rfoot rtoes
    lowerback upperback
    upperback thorax
    thorax lowerneck lclavicle rclavicle
    lowerneck upperneck
    upperneck head
    lclavicle lhumerus
    lhumerus lradius
    lradius lwrist
    lwrist lhand lthumb
    lhand lfingers
    rclavicle rhumerus
    rhumerus rradius
    rradius rwrist
    rwrist rhand rthumb
    rhand rfingers
  end

#!OML:ASF C:\ViconDB\ViconDB\414\Spring2016\042216\male.ASF
:FULLY-SPECIFIED
:DEGREES
610
root 23.5238 17.7842 9.27782 686.393 72.5827 1043.61
lowerback -0.331578 -0.85639 8.22159
upperback -1.53712 -1.11332 -1.67864
thorax -1.6055 -0.679545 -6.36019
lowerneck -2.90987 10.4408 -3.62701
upperneck -7.9908 13.6487 -9.82981
head -1.56594 7.15005 -2.54316
rclavicle 3.84648e-014 -3.18055e-015
rhumerus -29.6623 17.4012 -104.042
rradius 28.4107
rwrist 26.9068
rhand 13.794 -19.7765
rfingers 7.12502
rthumb 38.7153 -45.3774
lclavicle 3.84648e-014 -3.18055e-015
lhumerus -43.0431 27.8103 67.1211
lradius 33.9799
lwrist -13.2283
lhand -9.46756 15.6375
lfingers 7.12502
lthumb 16.4963 44.9562
rfemur 6.31029 11.841 23.5423
rtibia 26.6343
rfoot -0.666564 -6.86377
rtoes -22.7003
lfemur -13.1015 -5.36164 -4.19317
ltibia 25.9697
lfoot -16.0621 25.2436
ltoes -9.07335
611
root 23.6145 17.8145 9.25105 687.121 71.7079 1044.34
lowerback -0.0903716 -0.923894 8.26863
upperback -1.55681 -1.17966 -1.52095
thorax -1.77077 -0.719974 -6.21508
lowerneck -2.93646 10.47 -3.71213
upperneck -7.96576 13.6922 -9.67084
head -1.56915 7.16723 -2.47745
rclavicle 4.96962e-015 -6.36111e-015
rhumerus -30.0339 16.533 -103.351
rradius 27.7928
rwrist 28.668
rhand 14.419 -19.5223
rfingers 7.12502
rthumb 39.3045 -44.9545
lclavicle 4.96962e-015 -6.36111e-015
lhumerus -42.1878 27.0209 67.5817
lradius 34.4261
lwrist -12.2382
lhand -10.1122 15.5673
lfingers 7.12502
lthumb 15.8756 44.9365
rfemur 5.18871 12.0408 23.7313
rtibia 28.0841
rfoot -2.45921 -9.46024
rtoes -22.5433
lfemur -12.0476 -4.7034 -4.04828
ltibia 24.9697
lfoot -15.9929 25.4013
ltoes -9.093
612
root 23.7059 17.8461 9.21016 689.504 71.3858 1046.7
lowerback -0.0559751 -1.01507 7.77626
upperback -1.56725 -1.30428 -1.65051
thorax -1.81162 -0.778487 -6.06781
lowerneck -2.96024 10.4572 -3.62465
upperneck -7.9884 13.6716 -9.61369
head -1.57098 7.15242 -2.47227
rclavicle 1.54058e-014 -4.77083e-015
rhumerus -30.284 15.5726 -102.703
rradius 27.2142
rwrist 29.6017
rhand 15.1906 -19.4061
rfingers 7.12502
rthumb 40.031 -44.6228
lclavicle 1.54058e-014 -4.77083e-015
lhumerus -41.4122 26.6756 67.6861
lradius 34.9551
lwrist -11.6359
lhand -10.2932 15.5607
lfingers 7.12502
lthumb 15.7013 44.9437
rfemur 4.02173 12.1096 23.0592
rtibia 29.2644
rfoot -3.95069 -11.7916
rtoes -22.4844
lfemur -11.2098 -4.18128 -4.79762
ltibia 24.0651
lfoot -15.9671 25.5587
ltoes -9.07168
613
root 23.8086 17.8664 9.17161 690.744 70.8369 1047.93
lowerback -0.0980059 -1.03286 7.83437
upperback -1.53818 -1.33226 -1.66159
thorax -1.76417 -0.79063 -6.11302
lowerneck -2.88376 10.3922 -3.67528
upperneck -8.00461 13.5784 -9.52772
head -1.602 7.10721 -2.44469
rclavicle -2.14687e-014 -9.54166e-015
rhumerus -30.5574 14.4515 -101.834
rradius 26.7156
rwrist 30.4537
rhand 14.5932 -19.6945
rfingers 7.12502
rthumb 39.4686 -45.0787
lclavicle -2.14687e-014 -9.54166e-015
lhumerus -40.4968 26.0631 68.0123
lradius 35.2904
lwrist -11.4974
lhand -10.4619 15.6883
lfingers 7.12502
lthumb 15.5388 45.084
rfemur 2.9998 11.8883 22.757
rtibia 30.2162
rfoot -5.10474 -13.4498
rtoes -22.6404
lfemur -10.337 -4.31129 -5.11647
ltibia 23.3917
lfoot -16.2122 26.3164
ltoes -9.06051
614
root 23.8895 17.8791 9.1354 691.634 70.3612 1048.7
lowerback -0.0644615 -1.21546 7.67138
upperback -1.57404 -1.57164 -1.55016
thorax -1.85105 -0.911586 -5.89611
lowerneck -2.67743 10.4563 -3.505
upperneck -8.13936 13.6314 -9.67235
head -1.65755 7.1408 -2.5365
rclavicle 6.5748e-014 3.81667e-014
rhumerus -30.7037 13.175 -100.788
rradius 26.0934
rwrist 32.0968
rhand 15.0142 -19.0543
rfingers 7.12502
rthumb 39.865 -44.321
lclavicle 6.5748e-014 3.81667e-014
lhumerus -39.7986 25.7215 68.1405
lradius 35.6945
lwrist -10.7459
lhand -10.7695 15.7817
lfingers 7.12502
lthumb 15.2425 45.2001
rfemur 1.89178 11.9183 22.6649
rtibia 30.8623
rfoot -6.11788 -15.1011
rtoes -21.7476
lfemur -9.7847 -4.0223 -5.28979
ltibia 22.8075
lfoot -16.2728 26.5539
ltoes -8.97312
